<svg width="16" height="22" viewBox="0 0 16 22" fill="none" xmlns="http://www.w3.org/2000/svg">
<path fill-rule="evenodd" clip-rule="evenodd" d="M2.5 0H13.5C14.88 0.00158119 15.9983 1.07128 16 2.3913V19.6087C15.9983 20.9287 14.88 21.9984 13.5 22H2.5C1.11997 21.9984 0.00165306 20.9287 0 19.6087V2.3913C0.00165306 1.07128 1.11997 0.00158119 2.5 0ZM14.5 18.6522C14.7761 18.6522 15 18.438 15 18.1739V2.86957C15 2.60543 14.7761 2.3913 14.5 2.3913H1.5C1.22386 2.3913 1 2.60543 1 2.86957V18.1739C1 18.438 1.22386 18.6522 1.5 18.6522H14.5Z" fill="#5454D4"/>
</svg>
